<svg width="79" height="78" viewBox="0 0 79 78" fill="none" xmlns="http://www.w3.org/2000/svg">
<path fill-rule="evenodd" clip-rule="evenodd" d="M33.5 5C33.5 2.23858 35.7386 0 38.5 0H40.5C43.2614 0 45.5 2.23858 45.5 5V6C45.5 8.76142 43.2614 11 40.5 11H38.5C35.7386 11 33.5 8.76142 33.5 6V5ZM33.5 72C33.5 69.2386 35.7386 67 38.5 67H40.5C43.2614 67 45.5 69.2386 45.5 72V73C45.5 75.7614 43.2614 78 40.5 78H38.5C35.7386 78 33.5 75.7614 33.5 73V72ZM11 38C11 35.2386 8.76142 33 6 33H5C2.23858 33 0 35.2386 0 38V40C0 42.7614 2.23858 45 5 45H6C8.76142 45 11 42.7614 11 40V38ZM74 33C76.7614 33 79 35.2386 79 38V40C79 42.7614 76.7614 45 74 45H73C70.2386 45 68 42.7614 68 40V38C68 35.2386 70.2386 33 73 33H74ZM67.0355 11.0355C65.0829 9.08291 61.9171 9.08291 59.9645 11.0355L59.2574 11.7426C57.3047 13.6953 57.3047 16.8611 59.2574 18.8137L60.6716 20.2279C62.6242 22.1805 65.79 22.1805 67.7426 20.2279L68.4497 19.5208C70.4024 17.5682 70.4024 14.4024 68.4497 12.4497L67.0355 11.0355ZM10.5355 20.0209C8.58291 18.0683 8.58291 14.9024 10.5355 12.9498L11.9497 11.5356C13.9024 9.58298 17.0682 9.58298 19.0208 11.5356L19.7279 12.2427C21.6805 14.1953 21.6805 17.3612 19.7279 19.3138L18.3137 20.728C16.3611 22.6806 13.1953 22.6806 11.2426 20.728L10.5355 20.0209ZM59.5355 59.9498C57.5829 61.9024 57.5829 65.0683 59.5355 67.0209L60.2426 67.728C62.1953 69.6806 65.3611 69.6806 67.3137 67.728L68.7279 66.3138C70.6805 64.3612 70.6805 61.1953 68.7279 59.2427L68.0208 58.5356C66.0682 56.583 62.9024 56.583 60.9497 58.5356L59.5355 59.9498ZM11.2428 58.8353C13.1954 56.8827 16.3612 56.8827 18.3139 58.8353L19.7281 60.2496C21.6807 62.2022 21.6807 65.368 19.7281 67.3206L19.021 68.0277C17.0683 69.9803 13.9025 69.9803 11.9499 68.0277L10.5357 66.6135C8.58306 64.6609 8.58306 61.4951 10.5357 59.5424L11.2428 58.8353ZM40 63C52.7025 63 63 52.7025 63 40C63 27.2975 52.7025 17 40 17C27.2975 17 17 27.2975 17 40C17 52.7025 27.2975 63 40 63Z" fill="currentColor"/>
</svg>
