<svg width="70" height="70" viewBox="0 0 70 70" fill="none" xmlns="http://www.w3.org/2000/svg">
<path d="M70 35C70 54.33 54.33 70 35 70C15.67 70 0 54.33 0 35C0 15.67 15.67 0 35 0C54.33 0 70 15.67 70 35Z" fill="#0883FE"/>
<path d="M36.1955 56.3371L54.0534 19.1015C54.8688 17.4012 53.0937 15.6205 51.3909 16.4306L13.0005 34.694C11.0754 35.6098 11.7279 38.5 13.8596 38.5H29.1566C30.1981 38.5 31.0652 39.2993 31.15 40.3373L32.3988 55.635C32.5648 57.6691 35.3129 58.1773 36.1955 56.3371Z" fill="white"/>
</svg>
