<svg width="22" height="22" viewBox="0 0 22 22" fill="none" xmlns="http://www.w3.org/2000/svg">
<path d="M21.1567 7.37617L12.3567 0.456812C11.9664 0.160436 11.4899 0 11 0C10.5101 0 10.0336 0.160436 9.64333 0.456812L0.843346 7.37617C0.579765 7.58104 0.366674 7.84369 0.220469 8.1439C0.0742642 8.44411 -0.00115554 8.77388 1.3383e-05 9.10784V19.7987C0.0017159 20.382 0.234047 20.9409 0.646258 21.3534C1.05847 21.7658 1.61706 21.9983 2.20001 22H6.60001C7.18296 21.9983 7.74155 21.7658 8.15376 21.3534C8.56597 20.9409 8.7983 20.382 8.8 19.7987V16.1299C8.80056 15.9355 8.87801 15.7492 9.01541 15.6117C9.15282 15.4742 9.33902 15.3967 9.53333 15.3962H12.4667C12.661 15.3967 12.8472 15.4742 12.9846 15.6117C13.122 15.7492 13.1994 15.9355 13.2 16.1299V19.7987C13.2017 20.382 13.434 20.9409 13.8462 21.3534C14.2585 21.7658 14.817 21.9983 15.4 22H19.8C20.3829 21.9983 20.9415 21.7658 21.3537 21.3534C21.766 20.9409 21.9983 20.382 22 19.7987V9.10784C22.0012 8.77388 21.9257 8.44411 21.7795 8.1439C21.6333 7.84369 21.4202 7.58104 21.1567 7.37617ZM20.5333 19.7987C20.5328 19.9932 20.4553 20.1795 20.3179 20.3169C20.1805 20.4544 19.9943 20.5319 19.8 20.5325H15.4C15.2057 20.5319 15.0195 20.4544 14.8821 20.3169C14.7447 20.1795 14.6672 19.9932 14.6667 19.7987V16.1299C14.665 15.5466 14.4326 14.9877 14.0204 14.5753C13.6082 14.1628 13.0496 13.9303 12.4667 13.9286H9.53333C8.95038 13.9303 8.39179 14.1628 7.97958 14.5753C7.56737 14.9877 7.33504 15.5466 7.33334 16.1299V19.7987C7.33278 19.9932 7.25533 20.1795 7.11793 20.3169C6.98053 20.4544 6.79432 20.5319 6.60001 20.5325H2.20001C2.00569 20.5319 1.81949 20.4544 1.68209 20.3169C1.54468 20.1795 1.46724 19.9932 1.46668 19.7987V9.10784C1.46635 8.99643 1.49126 8.8864 1.53952 8.786C1.58779 8.68561 1.65816 8.59746 1.74534 8.52817L10.5453 1.60881C10.6758 1.50885 10.8356 1.45468 11 1.45468C11.1644 1.45468 11.3242 1.50885 11.4547 1.60881L20.2547 8.52817C20.3418 8.59746 20.4122 8.68561 20.4605 8.786C20.5087 8.8864 20.5336 8.99643 20.5333 9.10784V19.7987Z" fill="url(#paint0_linear_2520_1431)"/>
<path fill-rule="evenodd" clip-rule="evenodd" d="M19.8174 8L10.9997 1L2.18201 8H0.999726V8.93857L0.607422 9.25H0.999726V21H7.99973V15H13.9997V21H20.9997V9.25H21.392L20.9997 8.93857V8H19.8174Z" fill="url(#paint1_linear_2520_1431)"/>
<defs>
<linearGradient id="paint0_linear_2520_1431" x1="-1.01538" y1="-5.0926" x2="28.2576" y2="6.19374" gradientUnits="userSpaceOnUse">
<stop stop-color="#B8E1FF"/>
<stop offset="0.494792" stop-color="#BCB0FF"/>
<stop offset="1" stop-color="#FFCECE"/>
</linearGradient>
<linearGradient id="paint1_linear_2520_1431" x1="-0.351866" y1="-3.62963" x2="27.0206" y2="7.33795" gradientUnits="userSpaceOnUse">
<stop stop-color="#B8E1FF"/>
<stop offset="0.494792" stop-color="#BCB0FF"/>
<stop offset="1" stop-color="#FFCECE"/>
</linearGradient>
</defs>
</svg>
