<svg width="18" height="12" viewBox="0 0 18 12" fill="none" xmlns="http://www.w3.org/2000/svg">
<path fill-rule="evenodd" clip-rule="evenodd" d="M16.667 0.666992H15.667C15.1147 0.666992 14.667 1.11471 14.667 1.66699V10.3337C14.667 10.8859 15.1147 11.3337 15.667 11.3337H16.667C17.2193 11.3337 17.667 10.8859 17.667 10.3337V1.66699C17.667 1.11471 17.2193 0.666992 16.667 0.666992ZM11.0003 3.00033H12.0003C12.5526 3.00033 13.0003 3.44804 13.0003 4.00033V10.3337C13.0003 10.8859 12.5526 11.3337 12.0003 11.3337H11.0003C10.4481 11.3337 10.0003 10.8859 10.0003 10.3337V4.00033C10.0003 3.44804 10.4481 3.00033 11.0003 3.00033ZM7.33365 5.33366H6.33365C5.78136 5.33366 5.33365 5.78137 5.33365 6.33366V10.3337C5.33365 10.8859 5.78136 11.3337 6.33365 11.3337H7.33365C7.88593 11.3337 8.33365 10.8859 8.33365 10.3337V6.33366C8.33365 5.78137 7.88593 5.33366 7.33365 5.33366ZM2.66699 7.33366H1.66699C1.11471 7.33366 0.666992 7.78137 0.666992 8.33366V10.3337C0.666992 10.8859 1.11471 11.3337 1.66699 11.3337H2.66699C3.21928 11.3337 3.66699 10.8859 3.66699 10.3337V8.33366C3.66699 7.78137 3.21928 7.33366 2.66699 7.33366Z" fill="currentColor"/>
</svg>
