<svg width="21" height="23" viewBox="0 0 21 23" fill="none" xmlns="http://www.w3.org/2000/svg">
<path d="M11.8732 19.1448C11.7851 20.7527 10.4534 22.0294 8.82353 22.0294C7.19363 22.0294 5.86191 20.7527 5.77386 19.1448H1.01896C0.45563 19.1448 0 18.6903 0 18.1277V17.1086C0 15.9851 0.912442 15.0724 2.03691 15.0724L2.0362 10.9997C2.0362 8.1312 3.83004 5.61619 6.44796 4.63986V4.55043C6.44796 3.23972 7.51305 2.17647 8.82353 2.17647C10.1354 2.17647 11.1991 3.23908 11.1991 4.55043V4.63991C13.817 5.61638 15.6109 8.1318 15.6109 10.9997V15.0718C16.7329 15.0724 17.6471 15.9847 17.6471 17.1086V18.1277C17.6471 18.6881 17.1899 19.1448 16.6281 19.1448H11.8732ZM10.512 19.1448H7.13508C7.22021 20.0023 7.94366 20.6719 8.82353 20.6719C9.7034 20.6719 10.4268 20.0023 10.512 19.1448ZM16.2896 17.7873V17.1086C16.2896 16.735 15.9838 16.4299 15.6101 16.4299C14.8601 16.4299 14.2534 15.8235 14.2534 15.0718V10.9997C14.2534 8.56471 12.6366 6.44696 10.3322 5.78221L9.84163 5.64069V4.55043C9.84163 3.9891 9.38601 3.53394 8.82353 3.53394C8.26223 3.53394 7.80543 3.98995 7.80543 4.55043V5.64067L7.3148 5.78219C5.01033 6.44686 3.39366 8.56412 3.39366 10.9997V15.0718C3.39366 15.8213 2.78548 16.4299 2.03691 16.4299C1.66223 16.4299 1.35747 16.7347 1.35747 17.1086V17.7873H16.2896Z" fill="white"/>
<path d="M21 3C21 4.65685 19.6569 6 18 6C16.3431 6 15 4.65685 15 3C15 1.34315 16.3431 0 18 0C19.6569 0 21 1.34315 21 3Z" fill="#FB6E22"/>
</svg>
