<svg width="54" height="54" viewBox="0 0 54 54" fill="none" xmlns="http://www.w3.org/2000/svg">
<path d="M54 27C54 41.9117 41.9117 54 27 54C12.0883 54 0 41.9117 0 27C0 12.0883 12.0883 0 27 0C41.9117 0 54 12.0883 54 27Z" fill="white"/>
<path d="M23.713 12.5593C25.3961 9.64406 29.6039 9.64407 31.287 12.5593L42.3325 31.6907C44.0156 34.6059 41.9117 38.25 38.5455 38.25H16.4545C13.0883 38.25 10.9844 34.6059 12.6675 31.6907L23.713 12.5593Z" fill="#FFDC8D"/>
<path d="M27.8477 28.6161C29.0968 28.6161 29.7267 27.8902 29.7694 26.609L29.9936 20.6305C30.0043 20.4063 30.0149 20.1608 30.0149 19.9793C30.0149 18.6021 29.2356 17.812 27.8584 17.812C26.4812 17.812 25.6805 18.6021 25.6805 19.9793C25.6805 20.1608 25.6912 20.4063 25.7018 20.6305L25.926 26.609C25.9687 27.8902 26.588 28.6161 27.8477 28.6161ZM27.8477 33.9114C29.0861 33.9114 30.111 32.9719 30.111 31.7762C30.111 30.5912 29.0861 29.6517 27.8477 29.6517C26.588 29.6517 25.5737 30.5912 25.5737 31.7762C25.5737 32.9719 26.588 33.9114 27.8477 33.9114Z" fill="white"/>
</svg>
