<svg width="18" height="21" viewBox="0 0 18 21" fill="none" xmlns="http://www.w3.org/2000/svg">
<path d="M11.8732 17.1451C11.7851 18.753 10.4534 20.0297 8.82353 20.0297C7.19362 20.0297 5.86191 18.753 5.77386 17.1451H1.01896C0.455629 17.1451 0 16.6906 0 16.128V15.1089C0 13.9854 0.912442 13.0727 2.03691 13.0727C2.03559 13.0727 2.0362 9.00003 2.0362 9.00003C2.0362 6.13148 3.83004 3.61648 6.44796 2.64015V2.55071C6.44796 1.24001 7.51305 0.176758 8.82353 0.176758C10.1354 0.176758 11.1991 1.23937 11.1991 2.55071V2.6402C13.817 3.61666 15.6109 6.13209 15.6109 9.00003V13.0721C16.7329 13.0727 17.6471 13.985 17.6471 15.1089V16.128C17.6471 16.6884 17.1899 17.1451 16.6281 17.1451H11.8732ZM10.512 17.1451H7.13508C7.22021 18.0025 7.94366 18.6722 8.82353 18.6722C9.7034 18.6722 10.4268 18.0025 10.512 17.1451ZM16.2896 15.7876V15.1089C16.2896 14.7353 15.9838 14.4302 15.6101 14.4302C14.8601 14.4302 14.2534 13.8237 14.2534 13.0721V9.00003C14.2534 6.565 12.6366 4.44725 10.3322 3.7825L9.84163 3.64097V2.55071C9.84163 1.98938 9.38601 1.53422 8.82353 1.53422C8.26223 1.53422 7.80543 1.99024 7.80543 2.55071V3.64096L7.3148 3.78248C5.01033 4.44715 3.39366 6.5644 3.39366 9.00003V13.0721C3.39366 13.8216 2.78548 14.4302 2.03691 14.4302C1.66223 14.4302 1.35747 14.735 1.35747 15.1089V15.7876H16.2896Z" fill="currentColor"/>
</svg>
