<svg width="48" height="76" viewBox="0 0 48 76" fill="none" xmlns="http://www.w3.org/2000/svg">
<path fill-rule="evenodd" clip-rule="evenodd" d="M45.0157 39.5169L26.7001 1.69253C25.6073 -0.564181 22.3927 -0.564175 21.2999 1.69254L2.98427 39.5168C2.5668 40.2716 2.1888 41.0512 1.85306 41.8529L1.49827 42.5856C1.49136 42.5999 1.50175 42.6165 1.51759 42.6165V42.6165C1.53261 42.6165 1.543 42.6315 1.53769 42.6455C0.54382 45.2796 0 48.1345 0 51.1165C0 64.3713 10.7452 75.1165 24 75.1165C37.2548 75.1165 48 64.3713 48 51.1165C48 48.1345 47.4562 45.2796 46.4623 42.6455C46.457 42.6315 46.4674 42.6165 46.4824 42.6165V42.6165C46.4983 42.6165 46.5086 42.5999 46.5017 42.5856L46.1469 41.8529C45.8112 41.0512 45.4332 40.2716 45.0157 39.5169Z" fill="currentColor"/>
</svg>
