<svg width="21" height="23" viewBox="0 0 21 23" fill="none" xmlns="http://www.w3.org/2000/svg">
<path d="M18.442 22.8744H2.56121C1.15161 22.8744 0.00390625 21.7267 0.00390625 20.3171V4.43634C0.00390625 3.02674 1.15161 1.87891 2.56121 1.87891H18.442C19.8537 1.87891 20.9993 3.02674 20.9993 4.43634V20.3171C21.0014 21.7288 19.8537 22.8744 18.442 22.8744ZM2.56121 3.1792C1.72758 3.1792 1.27282 3.60271 1.27282 4.43634V12.1792V20.3171C1.27282 21.1507 1.72758 21.6792 2.56121 21.6792H18.442C19.2756 21.6792 19.8244 21.1507 19.8244 20.3171V4.43634C19.8244 3.60271 19.2777 3.1792 18.442 3.1792H2.56121Z" fill="#5A3FFF"/>
<path d="M6.2377 4.59637C5.85054 4.59637 5.53906 4.36179 5.53906 4.07484V0.522499C5.53906 0.233454 5.85334 0.000976562 6.2377 0.000976562C6.62203 0.000976562 6.93906 0.235547 6.93906 0.522499V4.07484C6.93627 4.36179 6.62203 4.59637 6.2377 4.59637Z" fill="#5A3FFF"/>
<path d="M15.0402 4.59539C14.6531 4.59539 14.3389 4.36081 14.3389 4.07388V0.521522C14.3389 0.232477 14.6531 0 15.0402 0C15.4274 0 15.7388 0.234573 15.7388 0.521522V4.07388C15.7416 4.36081 15.4274 4.59539 15.0402 4.59539Z" fill="#5A3FFF"/>
<path d="M20.4764 8.13926H0.523633C0.234587 8.13926 0 7.82443 0 7.4393C0 7.05416 0.234587 6.73926 0.523633 6.73926H20.4764C20.7654 6.73926 21 7.05416 21 7.4393C21 7.82443 20.7654 8.13926 20.4764 8.13926Z" fill="#5A3FFF"/>
</svg>
