<svg width="21" height="24" viewBox="0 0 21 24" fill="none" xmlns="http://www.w3.org/2000/svg">
<path d="M18.442 23.6957H2.56121C1.15161 23.6957 0.00390625 22.548 0.00390625 21.1384V5.25763C0.00390625 3.84803 1.15161 2.7002 2.56121 2.7002H18.442C19.8537 2.7002 20.9993 3.84803 20.9993 5.25763V21.1384C21.0014 22.55 19.8537 23.6957 18.442 23.6957ZM2.56121 4.00049C1.72758 4.00049 1.27282 4.424 1.27282 5.25763V13.0005V21.1384C1.27282 21.972 1.72758 22.5005 2.56121 22.5005H18.442C19.2756 22.5005 19.8244 21.972 19.8244 21.1384V5.25763C19.8244 4.424 19.2777 4.00049 18.442 4.00049H2.56121Z" fill="black"/>
<path d="M6.2377 5.41766C5.85054 5.41766 5.53906 5.18308 5.53906 4.89613V1.34379C5.53906 1.05474 5.85334 0.822266 6.2377 0.822266C6.62203 0.822266 6.93906 1.05684 6.93906 1.34379V4.89613C6.93627 5.18308 6.62203 5.41766 6.2377 5.41766Z" fill="black"/>
<path d="M15.0402 5.41668C14.6531 5.41668 14.3389 5.1821 14.3389 4.89517V1.34281C14.3389 1.05377 14.6531 0.821289 15.0402 0.821289C15.4274 0.821289 15.7388 1.05586 15.7388 1.34281V4.89517C15.7416 5.1821 15.4274 5.41668 15.0402 5.41668Z" fill="black"/>
<path d="M20.4764 8.96055H0.523633C0.234587 8.96055 0 8.64572 0 8.26058C0 7.87545 0.234587 7.56055 0.523633 7.56055H20.4764C20.7654 7.56055 21 7.87545 21 8.26058C21 8.64572 20.7654 8.96055 20.4764 8.96055Z" fill="black"/>
</svg>
