<svg width="21" height="23" viewBox="0 0 21 23" fill="none" xmlns="http://www.w3.org/2000/svg">
<path fill-rule="evenodd" clip-rule="evenodd" d="M14.3387 1.87866V0.521522C14.3387 0.232477 14.6529 0 15.0401 0C15.4272 0 15.7387 0.234573 15.7387 0.521522V1.87866H18.4419C19.8536 1.87866 20.9992 3.02649 20.9992 4.43609V6.90905C20.9997 6.9393 21 6.96962 21 7V18C21 18.0304 20.9997 18.0607 20.9992 18.091V20.3168C21.0013 21.7285 19.8536 22.8742 18.4419 22.8742H17.1195C16.7596 22.9565 16.3849 23 16 23H5C4.61514 23 4.24044 22.9565 3.88054 22.8742H2.56108C1.15148 22.8742 0.00378418 21.7264 0.00378418 20.3168V18.1963C0.00126911 18.1312 0 18.0658 0 18V7C0 6.93425 0.00126911 6.8688 0.00378418 6.80366V4.43609C0.00378418 3.02649 1.15148 1.87866 2.56108 1.87866H5.53873V0.522011C5.53873 0.232965 5.853 0.000488281 6.23737 0.000488281C6.62169 0.000488281 6.93873 0.235058 6.93873 0.522011V1.87866H14.3387Z" fill="url(#paint0_linear_2578_21266)"/>
<path d="M20.4764 8.13926H0.523633C0.234587 8.13926 0 7.82443 0 7.4393C0 7.05416 0.234587 6.73926 0.523633 6.73926H20.4764C20.7654 6.73926 21 7.05416 21 7.4393C21 7.82443 20.7654 8.13926 20.4764 8.13926Z" fill="white"/>
<defs>
<linearGradient id="paint0_linear_2578_21266" x1="-0.969229" y1="-5.32408" x2="27.588" y2="4.72886" gradientUnits="userSpaceOnUse">
<stop stop-color="#B8E1FF"/>
<stop offset="0.494792" stop-color="#BCB0FF"/>
<stop offset="1" stop-color="#FFCECE"/>
</linearGradient>
</defs>
</svg>
