<svg width="70" height="78" viewBox="0 0 70 78" fill="none" xmlns="http://www.w3.org/2000/svg">
<path fill-rule="evenodd" clip-rule="evenodd" d="M26.4155 8.5C26.4155 3.80558 30.2211 0 34.9155 0C39.61 0 43.4155 3.80558 43.4155 8.5V24.2777L57.0797 16.3887C61.1452 14.0415 66.3437 15.4344 68.6909 19.4999C71.0381 23.5654 69.6452 28.7639 65.5797 31.1111L51.9153 39.0002L65.5789 46.8889C69.6444 49.2361 71.0373 54.4346 68.6901 58.5001C66.3429 62.5656 61.1444 63.9585 57.0789 61.6113L43.4155 53.7228V69.5C43.4155 74.1944 39.61 78 34.9155 78C30.2211 78 26.4155 74.1944 26.4155 69.5V53.7225L12.7522 61.6111C8.68667 63.9583 3.48816 62.5654 1.14095 58.4999C-1.20626 54.4344 0.186674 49.2359 4.25216 46.8887L17.9153 39.0002L4.25136 31.1113C0.185871 28.7641 -1.20707 23.5656 1.14014 19.5001C3.48735 15.4346 8.68587 14.0417 12.7514 16.3889L26.4155 24.2779V8.5Z" fill="currentColor"/>
</svg>
