<svg width="16" height="12" viewBox="0 0 16 12" fill="none" xmlns="http://www.w3.org/2000/svg">
<path fill-rule="evenodd" clip-rule="evenodd" d="M8.33094 2.60838C10.5468 2.60848 12.678 3.45992 14.2839 4.98672C14.4049 5.10459 14.5982 5.1031 14.7173 4.98338L15.8733 3.81672C15.9336 3.75599 15.9672 3.67374 15.9667 3.58816C15.9662 3.50258 15.9316 3.42073 15.8706 3.36072C11.6555 -0.678832 5.00571 -0.678832 0.790608 3.36072C0.72955 3.42068 0.694906 3.50251 0.694343 3.58809C0.69378 3.67367 0.727344 3.75595 0.787608 3.81672L1.94394 4.98338C2.06297 5.10328 2.25642 5.10477 2.37728 4.98672C3.98343 3.45982 6.11483 2.60838 8.33094 2.60838ZM8.33093 6.40405C9.54842 6.40397 10.7225 6.85651 11.6249 7.67372C11.747 7.7897 11.9393 7.78718 12.0583 7.66805L13.2129 6.50138C13.2737 6.44019 13.3075 6.35717 13.3066 6.27091C13.3057 6.18464 13.2703 6.10233 13.2083 6.04238C10.4601 3.486 6.20413 3.486 3.45593 6.04238C3.39385 6.10233 3.35843 6.18468 3.35762 6.27097C3.3568 6.35727 3.39066 6.44028 3.4516 6.50138L4.60593 7.66805C4.72492 7.78718 4.9172 7.7897 5.03926 7.67372C5.94114 6.85705 7.11425 6.40455 8.33093 6.40405ZM10.6439 8.95787C10.6457 9.04437 10.6117 9.12778 10.5499 9.18838L8.5526 11.204C8.49405 11.2633 8.41422 11.2966 8.33093 11.2966C8.24764 11.2966 8.16782 11.2633 8.10927 11.204L6.1116 9.18838C6.04989 9.12773 6.01594 9.0443 6.01777 8.95779C6.0196 8.87129 6.05705 8.78937 6.12127 8.73138C7.39684 7.6525 9.26503 7.6525 10.5406 8.73138C10.6048 8.78942 10.6422 8.87136 10.6439 8.95787Z" fill="currentColor"/>
</svg>
